<?xml version="1.0" encoding="UTF-8" standalone="no"?>
<!-- Created with Inkscape (http://www.inkscape.org/) -->

<svg
   width="1024"
   height="768"
   viewBox="0 0 1024 768"
   version="1.1"
   id="svg1"
   xml:space="preserve"
   inkscape:version="1.4.3 (0d15f75, 2025-12-25)"
   sodipodi:docname="noutils.svg"
   xmlns:inkscape="http://www.inkscape.org/namespaces/inkscape"
   xmlns:sodipodi="http://sodipodi.sourceforge.net/DTD/sodipodi-0.dtd"
   xmlns="http://www.w3.org/2000/svg"
   xmlns:svg="http://www.w3.org/2000/svg"><sodipodi:namedview
     id="namedview1"
     pagecolor="#ffffff"
     bordercolor="#000000"
     borderopacity="0.25"
     inkscape:showpageshadow="2"
     inkscape:pageopacity="0.0"
     inkscape:pagecheckerboard="0"
     inkscape:deskcolor="#d1d1d1"
     inkscape:document-units="px"
     inkscape:zoom="0.66210938"
     inkscape:cx="273.36873"
     inkscape:cy="231.83481"
     inkscape:window-width="1440"
     inkscape:window-height="829"
     inkscape:window-x="-8"
     inkscape:window-y="-8"
     inkscape:window-maximized="1"
     inkscape:current-layer="layer1" /><defs
     id="defs1" /><g
     inkscape:label="Layer 1"
     inkscape:groupmode="layer"
     id="layer1"><rect
       style="fill:#1a1a1a;stroke-width:3.17438"
       id="rect1"
       width="1010.4071"
       height="531.63422"
       x="18.063747"
       y="93.419586"
       rx="14.280856"
       ry="7.6769519"
       sodipodi:insensitive="true" /><path
       style="fill:#f9f9f9;stroke-width:3.77953"
       d="m 208.42478,160.09439 -66.45428,-22.65486 22.65487,403.25663 -27.18584,61.92331 33.22714,-18.1239 30.20648,-42.28908 -3.02064,-141.9705 99.68141,166.13569 3.02065,-406.27729 -57.39233,-42.28908 34.73746,63.43363 1.51033,214.46607 z"
       id="path1" /><path
       id="path2"
       style="fill:#f9f9f9;stroke-width:3.90036"
       d="M 598.0885,380.60175 A 144.23599,155.56342 0 0 1 453.85251,536.16516 144.23599,155.56342 0 0 1 309.61652,380.60175 144.23599,155.56342 0 0 1 453.85251,225.03833 144.23599,155.56342 0 0 1 598.0885,380.60175 Z" /><path
       d="m 770.39539,391.40392 q 0,6.20899 -0.51033,18.79709 -0.51033,12.50304 -0.51033,18.79708 0,6.209 0.34022,18.62698 0.42527,12.33293 0.42527,18.54192 0,1.7011 -1.61604,2.21142 -0.68043,0.17011 -17.2661,0.17011 -1.02065,0 -1.27582,-6.3791 -0.17011,-6.3791 -0.9356,-6.3791 -0.42527,0 -1.27582,0.76549 -14.20413,12.33293 -28.06805,12.33293 -18.79708,0 -24.83597,-13.60875 -3.7424,-8.42041 -3.7424,-30.27947 0,-19.73269 3.14702,-33.42649 0.76549,-3.31713 2.80681,-3.31713 2.46658,0 7.39975,0.0851 4.93318,0.0851 7.39976,0.0851 1.7011,0 1.7011,1.8712 0,3.31713 -1.10572,11.05711 -1.19076,8.2503 -1.27582,11.65249 -0.25516,5.10328 -0.25516,11.22722 0,14.88457 2.12637,19.98785 3.65735,9.18591 16.24544,9.18591 5.35845,0 12.67315,-5.27339 7.73998,-5.52856 7.99514,-10.63184 0.42528,-6.3791 0.42528,-44.90887 0,-4.16768 3.48724,-4.16768 h 14.03402 q 2.46659,0 2.46659,2.97691 z m 64.72662,61.49454 q 0,1.8712 -0.34022,5.10328 -0.42527,3.99757 -0.51033,5.18834 -0.0851,1.53098 -0.25516,1.8712 -0.34022,0.59538 -1.61604,1.19077 -6.97449,3.31713 -21.94411,3.31713 -19.9028,0 -19.9028,-18.03159 0,-7.22965 0.34022,-21.68895 0.34022,-14.54435 0.34022,-21.774 0,-3.48724 -3.48724,-3.74241 -3.14703,0 -6.209,-0.085 -1.78614,-0.42527 -1.78614,-6.97449 0,-2.46658 0.34021,-5.18833 0.25517,-2.04131 2.72175,-2.46659 2.12637,0 4.16768,-0.0851 3.91252,-0.17011 3.91252,-3.48724 0,-3.40219 -0.25516,-10.37668 -0.17011,-6.97448 -0.17011,-10.46172 0,-6.209 2.38153,-6.209 0.76549,0 15.99028,2.6367 1.95626,0.25516 1.95626,1.8712 0,3.74241 -0.59539,11.22722 -0.51032,7.48481 -0.51032,11.22722 0,2.46659 2.29647,2.46659 h 20.41313 q 1.44593,0 1.44593,1.02065 0,1.02066 -0.34022,3.31714 -0.25517,2.21142 -0.25517,3.31713 0,1.27582 0.0851,3.91251 0.0851,2.6367 0.0851,3.91252 0,1.61604 -2.38153,1.61604 -3.40218,0 -10.29161,-0.42527 -6.88943,-0.51033 -10.29162,-0.51033 -0.68044,0 -1.02066,4.84811 -0.42527,6.03889 -0.42527,16.92589 v 12.67315 q 0,7.3147 1.36087,10.20656 2.04132,4.42284 8.42042,4.42284 2.63669,0 7.73997,-1.10571 5.10329,-1.19076 7.56987,-1.19076 1.02066,0 1.02066,1.53098 z m 34.27704,-86.07534 q 0,10.46172 -11.65249,10.46172 -11.8226,0 -11.8226,-10.46172 0,-4.67801 3.65735,-7.73998 3.40219,-2.89186 8.16525,-2.89186 4.76306,0 8.16525,2.97691 3.48724,2.97692 3.48724,7.65493 z m -0.59538,23.04982 q 0,6.54921 -0.85055,19.81774 -0.76549,13.18348 -0.76549,19.81774 0,6.20899 0.25516,18.62698 0.25517,12.33293 0.25517,18.45687 0,1.78614 -1.53099,1.78614 h -16.58566 q -1.78615,0 -1.78615,-3.48724 0,-5.86877 0.25516,-17.60632 0.34022,-11.8226 0.34022,-17.77643 0,-6.63426 -1.02065,-19.9028 -0.93561,-13.26853 -0.93561,-19.90279 0,-1.44593 1.78615,-1.44593 1.53099,0 4.67801,0.42527 3.23208,0.42527 4.84812,0.42527 1.61604,0 4.76306,-0.42527 3.23208,-0.42527 4.84812,-0.42527 1.44593,0 1.44593,1.61604 z m 38.35966,-39.29527 -0.0851,1.10571 q -1.87121,31.64035 -1.87121,54.34995 0,10.12151 0.34022,30.36452 0.34022,20.15796 0.34022,30.19442 0,1.95625 -1.36087,1.95625 h -16.24545 q -1.53098,0 -1.53098,-1.95625 0,-10.03646 0.17011,-30.19442 0.17011,-20.24301 0.17011,-30.36452 0,-9.18591 -0.93561,-27.55772 -0.85054,-18.45687 -0.85054,-27.55772 0,-1.70109 1.78615,-1.70109 1.53098,0 4.59295,0.25516 3.06197,0.25516 4.59295,0.25516 1.61604,0 4.76306,-0.25516 3.14703,-0.25516 4.67801,-0.25516 1.53099,0 1.44593,1.36087 z m 56.64643,91.77401 q 0,12.67315 -10.12151,20.32807 -9.18591,6.97448 -22.36939,6.97448 -5.10328,0 -5.78371,-0.25516 -1.44593,-0.68044 -1.44593,-4.16768 0,-1.8712 -0.51033,-5.61361 -0.42528,-3.74241 -0.42528,-5.52855 0,-1.10571 1.53099,-1.44593 1.10571,-0.25517 3.14702,0 2.6367,0.25516 2.55164,0.25516 16.07534,0 16.07534,-9.86634 0,-4.67801 -7.05954,-8.59053 -11.48238,-6.29404 -13.18348,-7.73997 -7.05954,-6.03889 -7.05954,-15.82018 0,-12.7582 9.61118,-19.90279 8.67558,-6.3791 21.94411,-6.3791 1.19077,0 1.7011,1.10571 0.59538,1.10571 2.12636,6.88943 1.61604,5.78372 1.61604,6.97448 0,0.9356 -1.61604,1.19077 -5.4435,0.76549 -10.97205,1.44593 -6.54921,1.78614 -6.54921,7.14459 0,3.82746 6.88943,7.73998 10.20656,5.69866 12.92831,8.2503 6.97449,6.63427 6.97449,17.01094 z"
       id="text4"
       style="font-size:174.192px;font-family:'Berlin Sans FB';-inkscape-font-specification:'Berlin Sans FB';fill:#f9f9f9;stroke-width:54.8637"
       transform="scale(0.89062454,1.1228076)"
       aria-label="utils"
       inkscape:label="w" /><path
       d="m 551.53337,345.9177 v 107.48337 c 0,12.67647 -6.40119,27.64832 -12.0616,40.8431 -3.40005,7.96722 -6.93304,16.18618 -6.93304,19.71071 v 11.10673 c 0,4.08726 -4.2548,7.40447 -9.49734,7.40447 -5.24251,0 -9.49732,-3.31721 -9.49732,-7.40447 v -11.10673 c 0,-5.92357 3.49502,-14.0685 7.92077,-24.39034 4.91961,-11.55098 11.07389,-25.90086 11.07389,-36.16347 V 345.9177 c 0,-4.07247 -3.91291,-7.15274 -9.07945,-7.15274 -5.28051,0 -9.72526,3.10989 -9.89621,6.9306 0,0.0444 -0.038,0.0889 -0.038,0.13328 l 0.019,57.16256 c 0,4.08726 -4.2548,7.40447 -9.49732,7.40447 -5.24253,0 -9.49733,-3.31721 -9.49733,-7.40447 l -0.019,-60.50939 c 0,-0.0741 0.057,-0.13328 0.057,-0.22213 v -20.82139 c 0,-3.43568 -2.65926,-7.15272 -8.47162,-7.15272 -5.20453,0 -10.02917,3.10988 -10.33309,6.66402 -0.019,0.19252 -0.18994,0.37023 -0.22793,0.57755 v 66.34412 c 0,4.08726 -4.2548,7.40447 -9.49733,7.40447 -5.24252,0 -9.49732,-3.30239 -9.49732,-7.40447 v -72.50464 c 0,-0.3258 0.18994,-0.62198 0.24693,-0.93297 v -11.77312 c 0,-3.86513 -4.57771,-7.13791 -9.97219,-7.13791 -5.29951,0 -9.44034,3.12468 -9.44034,7.13791 v 12.82456 c 0.038,0.22214 0.17095,0.41465 0.17095,0.6516 v 0 72.50464 c 0,4.08726 -4.2548,7.40447 -9.49732,7.40447 -5.24252,0 -9.49732,-3.31721 -9.49732,-7.40447 v 0 -68.00272 c 0,-0.0592 -0.057,-0.10364 -0.076,-0.1629 -0.62683,-3.52453 -4.71068,-6.19014 -9.49732,-6.19014 -5.29952,0 -9.59231,3.21354 -9.59231,7.15272 v 84.48508 c 0,3.08026 -2.43131,5.83473 -6.11627,6.91578 -3.62798,1.08105 -7.84479,0.29618 -10.46605,-1.99921 l -21.21703,-18.57042 c -7.46488,-6.79731 -12.46048,-4.60559 -14.30296,-3.77629 -2.20338,0.96259 -3.77994,2.53234 -4.40677,4.39826 -0.60782,1.79189 -0.26592,3.67262 0.94973,5.2868 l 62.53039,103.79595 c 0.87376,1.08105 3.00116,2.29539 5.58443,2.78409 4.27379,0.79968 7.25595,3.77628 7.25595,7.19715 v 13.10593 c 10e-6,4.08726 -4.25479,7.40447 -9.49731,7.40447 -5.24253,0 -9.49733,-3.31721 -9.49733,-7.40447 v -8.08569 c -4.38776,-1.89555 -8.03473,-4.65002 -10.637,-8.07089 L 327.07362,405.09427 c -3.41904,-4.42788 -4.46374,-10.33665 -2.54528,-16.00848 1.95645,-5.73106 6.72409,-10.51436 13.41022,-13.47615 12.84038,-5.64221 27.01038,-3.05064 37.98929,6.93059 l 4.50174,3.93918 v -65.04092 c 0,-12.11373 12.82138,-21.96168 28.58694,-21.96168 3.30506,0 6.51516,0.44427 9.49733,1.25877 1.27264,-11.21038 13.48619,-20.02172 28.32101,-20.02172 15.21472,0 27.7132,8.94461 28.89085,20.24385 3.24809,-0.94778 6.76211,-1.4809 10.40908,-1.4809 15.40466,0 27.46626,9.64063 27.46626,21.96168 v 3.87994 c 3.09613,-0.87373 6.42019,-1.34761 9.87721,-1.34761 15.72757,-0.0149 28.0551,9.62582 28.0551,21.94688 z"
       fill="#000000"
       id="path1-8"
       style="stroke-width:16.7718;fill:#1a1a1a;fill-opacity:1"
       inkscape:label="ws" /></g></svg>
